<?xml version="1.0" encoding="utf-8"?>
<!-- Generator: Adobe Illustrator 26.0.1, SVG Export Plug-In . SVG Version: 6.00 Build 0)  -->
<svg version="1.1" id="Livello_1" xmlns="http://www.w3.org/2000/svg" xmlns:xlink="http://www.w3.org/1999/xlink" x="0px" y="0px"
	 viewBox="0 0 358.2 331.8" style="enable-background:new 0 0 358.2 331.8;" xml:space="preserve">
<style type="text/css">
	.st0{fill:#ffffff;}
</style>
<g>
	<path class="st0" d="M0,10.5C2.4-0.3,12.8-2,21.1,1.9c108.5,50.3,217.2,100.4,325.8,150.5c5.9,2.7,10.7,6.1,10.8,13.1
		c0.1,7.1-4.7,10.6-10.6,13.3C238.2,228.9,129.4,279.1,20.6,329.4c-7.6,3.5-13.5,2.7-17.6-2.5c-1.3-1.6-2-3.6-2.9-5.4
		c0-1.6,0-3.3,0-4.9c1.5-2.7,2.8-5.6,4.7-8c33.3-44.5,66.7-89,100-133.5c2.4-3.1,4.7-6.3,7-9.4c-0.8-1.2-1.5-2.1-2.2-3
		C75,116.5,40.4,70.5,5.9,24.4c-2.3-3-4-6.5-5.9-9.7C0,13.3,0,11.9,0,10.5z"/>
</g>
</svg>
